<mxfile host="65bd71144e">
    <diagram id="GPvrRylX8BrqGYzw24RA" name="Page-1">
        <mxGraphModel dx="1394" dy="1360" grid="1" gridSize="10" guides="1" tooltips="1" connect="1" arrows="1" fold="1" page="1" pageScale="1" pageWidth="850" pageHeight="1100" math="0" shadow="0">
            <root>
                <mxCell id="0"/>
                <mxCell id="1" parent="0"/>
                <mxCell id="2" value="Utente&lt;br&gt;" style="shape=umlActor;html=1;verticalLabelPosition=bottom;verticalAlign=top;align=center;" vertex="1" parent="1">
                    <mxGeometry x="210" y="320" width="30" height="60" as="geometry"/>
                </mxCell>
                <mxCell id="20" style="edgeStyle=none;html=1;exitX=0.25;exitY=0.1;exitDx=0;exitDy=0;exitPerimeter=0;entryX=1;entryY=1;entryDx=0;entryDy=0;entryPerimeter=0;" edge="1" parent="1" source="3" target="2">
                    <mxGeometry relative="1" as="geometry"/>
                </mxCell>
                <mxCell id="3" value="UtenteNonRegistrato" style="shape=umlActor;html=1;verticalLabelPosition=bottom;verticalAlign=top;align=center;" vertex="1" parent="1">
                    <mxGeometry x="320" y="430" width="30" height="60" as="geometry"/>
                </mxCell>
                <mxCell id="18" style="edgeStyle=none;html=1;exitX=0.75;exitY=0.1;exitDx=0;exitDy=0;exitPerimeter=0;entryX=0;entryY=1;entryDx=0;entryDy=0;entryPerimeter=0;" edge="1" parent="1" source="4" target="2">
                    <mxGeometry relative="1" as="geometry"/>
                </mxCell>
                <mxCell id="4" value="UtenteRegistrato" style="shape=umlActor;html=1;verticalLabelPosition=bottom;verticalAlign=top;align=center;" vertex="1" parent="1">
                    <mxGeometry x="110" y="430" width="30" height="60" as="geometry"/>
                </mxCell>
                <mxCell id="19" style="edgeStyle=none;html=1;exitX=0.5;exitY=0;exitDx=0;exitDy=0;exitPerimeter=0;" edge="1" parent="1" source="8" target="2">
                    <mxGeometry relative="1" as="geometry"/>
                </mxCell>
                <mxCell id="8" value="UtentePremium" style="shape=umlActor;html=1;verticalLabelPosition=bottom;verticalAlign=top;align=center;" vertex="1" parent="1">
                    <mxGeometry x="210" y="430" width="30" height="60" as="geometry"/>
                </mxCell>
                <mxCell id="21" value="StreamEveryThing" style="shape=rect;html=1;verticalAlign=top;fontStyle=1;whiteSpace=wrap;align=center;" vertex="1" parent="1">
                    <mxGeometry x="500" y="30" width="220" height="970" as="geometry"/>
                </mxCell>
                <mxCell id="22" value="Sfogliare il catalogo" style="ellipse;whiteSpace=wrap;html=1;" vertex="1" parent="1">
                    <mxGeometry x="545" y="90" width="115" height="60" as="geometry"/>
                </mxCell>
                <mxCell id="23" value="Ricerca nel catalogo" style="ellipse;whiteSpace=wrap;html=1;" vertex="1" parent="1">
                    <mxGeometry x="545" y="170" width="115" height="60" as="geometry"/>
                </mxCell>
                <mxCell id="24" value="Registrazione" style="ellipse;whiteSpace=wrap;html=1;" vertex="1" parent="1">
                    <mxGeometry x="545" y="250" width="115" height="60" as="geometry"/>
                </mxCell>
                <mxCell id="26" value="Login" style="ellipse;whiteSpace=wrap;html=1;" vertex="1" parent="1">
                    <mxGeometry x="545" y="330" width="115" height="60" as="geometry"/>
                </mxCell>
                <mxCell id="27" value="Visualizzazione film/serie TV base" style="ellipse;whiteSpace=wrap;html=1;" vertex="1" parent="1">
                    <mxGeometry x="545" y="410" width="115" height="60" as="geometry"/>
                </mxCell>
                <mxCell id="28" value="Visualizzazione film/serie TV premium" style="ellipse;whiteSpace=wrap;html=1;" vertex="1" parent="1">
                    <mxGeometry x="545" y="490" width="115" height="60" as="geometry"/>
                </mxCell>
                <mxCell id="29" value="Download &lt;br&gt;film/serie TV&amp;nbsp;" style="ellipse;whiteSpace=wrap;html=1;" vertex="1" parent="1">
                    <mxGeometry x="545" y="570" width="115" height="60" as="geometry"/>
                </mxCell>
                <mxCell id="30" value="Cancellazione della registrazione" style="ellipse;whiteSpace=wrap;html=1;" vertex="1" parent="1">
                    <mxGeometry x="545" y="650" width="115" height="60" as="geometry"/>
                </mxCell>
                <mxCell id="31" value="Aggiunta &lt;br&gt;film/serie TV" style="ellipse;whiteSpace=wrap;html=1;" vertex="1" parent="1">
                    <mxGeometry x="545" y="730" width="115" height="60" as="geometry"/>
                </mxCell>
                <mxCell id="32" value="Rimozione&lt;br&gt;film/serie TV" style="ellipse;whiteSpace=wrap;html=1;" vertex="1" parent="1">
                    <mxGeometry x="545" y="810" width="115" height="60" as="geometry"/>
                </mxCell>
                <mxCell id="33" value="Analisi e reportistica dei pagamenti" style="ellipse;whiteSpace=wrap;html=1;" vertex="1" parent="1">
                    <mxGeometry x="545" y="890" width="115" height="60" as="geometry"/>
                </mxCell>
            </root>
        </mxGraphModel>
    </diagram>
</mxfile>